<?xml version="1.0" standalone="no"?>
<!DOCTYPE svg PUBLIC "-//W3C//DTD SVG 20010904//EN"
 "http://www.w3.org/TR/2001/REC-SVG-20010904/DTD/svg10.dtd">
<svg version="1.0" xmlns="http://www.w3.org/2000/svg"
 width="381.000000pt" height="381.000000pt" viewBox="0 0 381.000000 381.000000"
 preserveAspectRatio="xMidYMid meet">
<metadata>
Created by potrace 1.11, written by Peter Selinger 2001-2013
</metadata>
<g transform="translate(0.000000,381.000000) scale(0.100000,-0.100000)"
fill="#000000" stroke="none">
<path d="M709 3455 c-2 -2 -23 -6 -47 -10 -46 -7 -157 -51 -182 -72 -80 -69
-118 -132 -145 -238 -26 -106 -34 -204 -35 -475 -1 -348 -5 -385 -47 -461 -27
-51 -88 -92 -153 -104 -19 -3 -44 -8 -55 -10 -11 -2 -23 -4 -27 -4 -5 -1 -8
-73 -8 -160 l0 -159 61 -11 c114 -20 172 -63 206 -154 15 -43 18 -95 27 -557
3 -113 7 -217 10 -232 3 -16 8 -38 10 -50 24 -140 86 -247 176 -302 110 -68
304 -92 490 -61 19 4 46 8 60 11 14 2 46 7 73 10 26 4 50 10 53 15 7 13 8 313
0 318 -5 3 -89 -11 -161 -26 -11 -2 -67 -6 -124 -8 -117 -5 -158 8 -198 63
-39 53 -46 112 -49 407 -1 154 -5 319 -8 366 -10 138 -54 285 -104 342 -14 16
-12 24 21 91 75 149 87 238 91 691 4 343 17 395 113 437 40 17 59 19 140 14
52 -3 135 -15 185 -26 50 -11 93 -18 95 -16 4 4 5 327 1 332 -18 17 -454 54
-469 39z"/>
<path d="M2838 3445 c-3 -3 -54 -11 -142 -21 -26 -4 -60 -10 -75 -13 l-26 -7
-2 -167 -2 -166 32 5 c18 3 39 8 47 11 8 2 33 7 55 10 22 3 60 9 85 13 82 15
191 7 230 -17 81 -50 92 -105 95 -468 2 -159 7 -319 11 -355 4 -36 8 -72 9
-80 6 -54 33 -137 67 -208 37 -75 39 -84 26 -100 -23 -25 -58 -98 -73 -151
-13 -45 -17 -67 -30 -164 -4 -26 -8 -186 -10 -355 -2 -169 -6 -320 -9 -337
-19 -90 -50 -135 -109 -160 -45 -18 -196 -14 -317 10 -47 9 -89 17 -95 18 -6
1 -10 -59 -11 -161 -2 -158 -1 -162 20 -167 95 -24 274 -43 371 -40 338 10
463 151 490 550 2 33 4 178 5 321 1 267 7 321 44 392 22 42 95 89 155 99 25 4
49 8 54 9 4 1 18 2 32 3 l25 1 0 159 0 159 -52 7 c-132 16 -203 63 -231 152
-24 73 -26 107 -28 404 -2 368 -15 465 -76 601 -64 143 -223 217 -465 216 -53
0 -98 -2 -100 -3z"/>
<path d="M1685 2910 c-3 -6 -44 -117 -90 -248 -46 -130 -107 -302 -135 -382
-28 -80 -60 -170 -70 -200 -10 -30 -46 -134 -80 -230 -142 -401 -142 -401
-144 -480 -1 -41 0 -81 2 -87 3 -10 100 -13 438 -13 l434 0 0 -175 0 -175 140
0 c105 0 140 3 141 13 0 6 2 84 2 172 l2 160 145 5 145 5 1 133 1 132 -147 0
-147 0 0 333 c-1 182 -2 337 -2 342 -1 10 -236 14 -245 4 -2 -2 -6 -33 -10
-69 -3 -36 -8 -85 -11 -110 -3 -25 -7 -61 -10 -80 -2 -19 -4 -122 -4 -227 l-1
-193 -270 0 c-148 0 -270 4 -270 8 0 4 101 291 225 637 124 347 225 635 225
641 0 6 -55 28 -122 49 -68 21 -126 39 -130 42 -4 2 -9 -1 -13 -7z"/>
</g>
</svg>
